<?xml version="1.0" encoding="UTF-8" standalone="no"?>
<!-- Created with Inkscape (http://www.inkscape.org/) -->

<svg
   xmlns:dc="http://purl.org/dc/elements/1.1/"
   xmlns:cc="http://creativecommons.org/ns#"
   xmlns:rdf="http://www.w3.org/1999/02/22-rdf-syntax-ns#"
   xmlns:svg="http://www.w3.org/2000/svg"
   xmlns="http://www.w3.org/2000/svg"
   xmlns:xlink="http://www.w3.org/1999/xlink"
   xmlns:sodipodi="http://sodipodi.sourceforge.net/DTD/sodipodi-0.dtd"
   xmlns:inkscape="http://www.inkscape.org/namespaces/inkscape"
   width="39.536217mm"
   height="39.536221mm"
   viewBox="0 0 140.08896 140.08897"
   id="svg4672"
   version="1.1"
   inkscape:version="0.92.3 (2405546, 2018-03-11)"
   sodipodi:docname="genealloy.svg">
  <defs
     id="defs4674">
    <marker
       inkscape:stockid="DotS"
       orient="auto"
       refY="0.0"
       refX="0.0"
       id="DotS"
       style="overflow:visible"
       inkscape:isstock="true">
      <path
         id="path1517"
         d="M -2.5,-1.0 C -2.5,1.7600000 -4.7400000,4.0 -7.5,4.0 C -10.260000,4.0 -12.5,1.7600000 -12.5,-1.0 C -12.5,-3.7600000 -10.260000,-6.0 -7.5,-6.0 C -4.7400000,-6.0 -2.5,-3.7600000 -2.5,-1.0 z "
         style="fill-rule:evenodd;stroke:#000000;stroke-width:1pt;stroke-opacity:1;fill:#000000;fill-opacity:1"
         transform="scale(0.2) translate(7.4, 1)" />
    </marker>
    <marker
       inkscape:stockid="DotM"
       orient="auto"
       refY="0.0"
       refX="0.0"
       id="DotM"
       style="overflow:visible"
       inkscape:isstock="true">
      <path
         id="path1514"
         d="M -2.5,-1.0 C -2.5,1.7600000 -4.7400000,4.0 -7.5,4.0 C -10.260000,4.0 -12.5,1.7600000 -12.5,-1.0 C -12.5,-3.7600000 -10.260000,-6.0 -7.5,-6.0 C -4.7400000,-6.0 -2.5,-3.7600000 -2.5,-1.0 z "
         style="fill-rule:evenodd;stroke:#000000;stroke-width:1pt;stroke-opacity:1;fill:#000000;fill-opacity:1"
         transform="scale(0.4) translate(7.4, 1)" />
    </marker>
    <marker
       inkscape:stockid="DotL"
       orient="auto"
       refY="0.0"
       refX="0.0"
       id="DotL"
       style="overflow:visible"
       inkscape:isstock="true">
      <path
         id="path1511"
         d="M -2.5,-1.0 C -2.5,1.7600000 -4.7400000,4.0 -7.5,4.0 C -10.260000,4.0 -12.5,1.7600000 -12.5,-1.0 C -12.5,-3.7600000 -10.260000,-6.0 -7.5,-6.0 C -4.7400000,-6.0 -2.5,-3.7600000 -2.5,-1.0 z "
         style="fill-rule:evenodd;stroke:#000000;stroke-width:1pt;stroke-opacity:1;fill:#000000;fill-opacity:1"
         transform="scale(0.8) translate(7.4, 1)" />
    </marker>
  </defs>
  <sodipodi:namedview
     id="base"
     pagecolor="#ffffff"
     bordercolor="#666666"
     borderopacity="1.0"
     inkscape:pageopacity="0.0"
     inkscape:pageshadow="2"
     inkscape:zoom="1.4"
     inkscape:cx="-49.266159"
     inkscape:cy="98.507356"
     inkscape:document-units="px"
     inkscape:current-layer="layer1"
     showgrid="false"
     fit-margin-top="0.5"
     fit-margin-left="0.5"
     fit-margin-bottom="0.5"
     fit-margin-right="0.5"
     inkscape:window-width="1280"
     inkscape:window-height="1318"
     inkscape:window-x="0"
     inkscape:window-y="27"
     inkscape:window-maximized="0" />
  <metadata
     id="metadata4677">
    <rdf:RDF>
      <cc:Work
         rdf:about="">
        <dc:format>image/svg+xml</dc:format>
        <dc:type
           rdf:resource="http://purl.org/dc/dcmitype/StillImage" />
        <dc:title></dc:title>
      </cc:Work>
    </rdf:RDF>
  </metadata>
  <g
     inkscape:label="Layer 1"
     inkscape:groupmode="layer"
     id="layer1"
     transform="translate(-14.452634,-12.762348)">
    <use
       id="use79769-8-2"
       xlink:href="#home"
       transform="matrix(0.12554633,0,0,0.12554633,-86.752433,154.44143)"
       x="0"
       y="0"
       width="100%"
       height="100%" />
    <rect
       style="fill:none;fill-opacity:1;stroke:#000000;stroke-width:5.62499996;stroke-miterlimit:4;stroke-dasharray:none;stroke-opacity:1"
       id="rect1398"
       width="98.016365"
       height="94.583412"
       x="34.340012"
       y="35.302708"
       ry="30.422953" />
    <path
       sodipodi:nodetypes="cccc"
       inkscape:connector-curvature="0"
       id="path86912"
       d="m 47.348937,61.246114 49.123253,-0.0253 23.1662,-0.01193 -18.69148,-11.591631"
       style="fill:none;fill-rule:evenodd;stroke:#000000;stroke-width:4.6875;stroke-linecap:round;stroke-linejoin:round;stroke-miterlimit:4;stroke-dasharray:none;stroke-opacity:1" />
    <path
       style="fill:none;stroke:#000000;stroke-width:3.75;stroke-linecap:butt;stroke-linejoin:round;stroke-miterlimit:4;stroke-dasharray:7.49999995, 3.74999998;stroke-dashoffset:0;stroke-opacity:1"
       d="M 71.296244,102.4226 H 112.82413"
       id="path1433"
       inkscape:connector-curvature="0" />
    <path
       style="fill:none;stroke:#000000;stroke-width:3.75;stroke-linecap:butt;stroke-linejoin:round;stroke-miterlimit:4;stroke-dasharray:7.49999995, 3.74999998;stroke-dashoffset:0;stroke-opacity:1"
       d="m 70.436117,102.16056 19.170327,11.17099"
       id="path1433-8"
       inkscape:connector-curvature="0"
       sodipodi:nodetypes="cc" />
    <path
       style="fill:none;stroke:#000000;stroke-width:3.74999998;stroke-linecap:butt;stroke-linejoin:miter;stroke-miterlimit:4;stroke-dasharray:7.49999995,3.74999998;stroke-opacity:1;stroke-dashoffset:0"
       d="m 34.872709,72.887484 c 0,0 7.694522,18.821984 19.41387,18.821984 11.719348,0 13.910335,-17.965504 23.734639,-17.579022 8.044301,0.316458 11.481715,17.715222 21.663036,17.519833 12.190606,-0.233948 10.530906,-17.401454 21.307896,-17.519833 9.23288,-0.101417 11.71936,8.523161 11.71936,8.523161"
       id="path1870"
       inkscape:connector-curvature="0"
       sodipodi:nodetypes="cssssc" />
    <path
       style="fill:none;stroke:#000000;stroke-width:3.75;stroke-linecap:butt;stroke-linejoin:miter;stroke-miterlimit:4;stroke-dasharray:none;stroke-opacity:1"
       d="m 132.71151,82.653607 c 0,0 -3.2394,9.236139 -11.10443,9.161718 C 109.92233,91.704761 110.72428,74.029987 101.20566,74.09701 89.486611,74.179527 86.857626,91.707947 77.299031,91.785609 67.262484,91.867154 64.805042,74.033293 54.625352,74.300364 42.436692,74.620141 41.021036,92.367422 34.329161,92.08817"
       id="path1870-7"
       inkscape:connector-curvature="0"
       sodipodi:nodetypes="cssssc" />
  </g>
</svg>
